<svg width="144" height="49" viewBox="0 0 144 49" fill="none" xmlns="http://www.w3.org/2000/svg">
<path d="M19.008 16.32C20.896 16.672 22.448 17.616 23.664 19.152C24.88 20.688 25.488 22.448 25.488 24.432C25.488 26.224 25.04 27.808 24.144 29.184C23.28 30.528 22.016 31.584 20.352 32.352C18.688 33.12 16.72 33.504 14.448 33.504H0V0H13.824C16.096 0 18.048 0.368 19.68 1.104C21.344 1.84 22.592 2.864 23.424 4.176C24.288 5.488 24.72 6.976 24.72 8.64C24.72 10.592 24.192 12.224 23.136 13.536C22.112 14.848 20.736 15.776 19.008 16.32ZM6.72 13.824H12.864C14.464 13.824 15.696 13.472 16.56 12.768C17.424 12.032 17.856 10.992 17.856 9.648C17.856 8.304 17.424 7.264 16.56 6.528C15.696 5.792 14.464 5.424 12.864 5.424H6.72V13.824ZM13.488 28.032C15.12 28.032 16.384 27.648 17.28 26.88C18.208 26.112 18.672 25.024 18.672 23.616C18.672 22.176 18.192 21.056 17.232 20.256C16.272 19.424 14.976 19.008 13.344 19.008H6.72V28.032H13.488Z" fill="black"/>
<path d="M56.9077 6.912V33.504H50.1398V30.144C49.2758 31.296 48.1398 32.208 46.7318 32.88C45.3558 33.52 43.8517 33.84 42.2197 33.84C40.1397 33.84 38.2997 33.408 36.6997 32.544C35.0997 31.648 33.8357 30.352 32.9077 28.656C32.0117 26.928 31.5637 24.88 31.5637 22.512V6.912H38.2837V21.552C38.2837 23.664 38.8117 25.296 39.8677 26.448C40.9237 27.568 42.3638 28.128 44.1878 28.128C46.0438 28.128 47.4997 27.568 48.5557 26.448C49.6117 25.296 50.1398 23.664 50.1398 21.552V6.912H56.9077Z" fill="black"/>
<path d="M104.709 11.04C105.573 9.632 106.693 8.528 108.069 7.728C109.477 6.928 111.077 6.528 112.869 6.528V13.584H111.093C108.981 13.584 107.381 14.08 106.293 15.072C105.237 16.064 104.709 17.792 104.709 20.256V33.504H97.9894V6.912H104.709V11.04Z" fill="black"/>
<path d="M143.076 19.632C143.076 20.592 143.012 21.456 142.884 22.224H123.444C123.604 24.144 124.276 25.648 125.46 26.736C126.644 27.824 128.1 28.368 129.828 28.368C132.324 28.368 134.1 27.296 135.156 25.152H142.404C141.636 27.712 140.164 29.824 137.988 31.488C135.812 33.12 133.14 33.936 129.972 33.936C127.412 33.936 125.108 33.376 123.06 32.256C121.044 31.104 119.46 29.488 118.308 27.408C117.188 25.328 116.628 22.928 116.628 20.208C116.628 17.456 117.188 15.04 118.308 12.96C119.428 10.88 120.996 9.28 123.012 8.16C125.028 7.04 127.348 6.48 129.972 6.48C132.5 6.48 134.756 7.024 136.74 8.112C138.756 9.2 140.308 10.752 141.396 12.768C142.516 14.752 143.076 17.04 143.076 19.632ZM136.116 17.712C136.084 15.984 135.46 14.608 134.244 13.584C133.028 12.528 131.54 12 129.78 12C128.116 12 126.708 12.512 125.556 13.536C124.436 14.528 123.748 15.92 123.492 17.712H136.116Z" fill="black"/>
<path d="M90.0002 22.2749C90.8749 19.4242 90.7341 16.3583 89.6018 13.5998C88.4694 10.8412 86.4156 8.56061 83.7903 7.14656C81.165 5.73251 78.1306 5.2725 75.2042 5.8449C72.2777 6.41731 69.6402 7.98672 67.7412 10.2857C65.8421 12.5847 64.799 15.4711 64.7895 18.453C64.78 21.4349 65.8047 24.3278 67.689 26.6389C69.5733 28.95 72.2007 30.5362 75.1235 31.1272C78.0462 31.7183 81.0835 31.2777 83.7178 29.8804L81.2881 25.2998C79.7136 26.1349 77.8982 26.3983 76.1513 26.045C74.4043 25.6917 72.8339 24.7436 71.7076 23.3623C70.5814 21.9809 69.9689 20.2518 69.9746 18.4695C69.9803 16.6872 70.6038 14.962 71.7388 13.5879C72.8739 12.2138 74.4503 11.2757 76.1995 10.9336C77.9486 10.5915 79.7623 10.8664 81.3315 11.7116C82.9007 12.5568 84.1282 13.9199 84.805 15.5687C85.4818 17.2175 85.566 19.05 85.0432 20.7539L90.0002 22.2749Z" fill="black"/>
<path d="M88.6878 25.5039C88.6878 25.5039 90.0212 38.8372 88.2434 41.9484C86.4656 45.0595 83.3545 45.5039 83.3545 45.5039" stroke="black" stroke-width="6"/>
</svg>
